<?xml version="1.0" standalone="no"?>
<!DOCTYPE svg PUBLIC "-//W3C//DTD SVG 1.1//EN" 
"http://www.w3.org/Graphics/SVG/1.1/DTD/svg11.dtd"> 
<svg
  xmlns="http://www.w3.org/2000/svg"
  version="1.1"
  width="11.7in" height="8.267in" viewBox="0 0 11700 8267 "
>
  <title>SVG Picture created as asproj-schema.svg </title>
  <desc>Picture generated by wxSVG v0101 </desc>
  <g style="fill:black; stroke:black; stroke-width:1">
</g>
<g style="fill:#000000; fill-opacity:0.0; 
  stroke:#00A000; stroke-linecap:round; stroke-linejoin:round; stroke-opacity:1.0; stroke-opacity:1.0; stroke-width:6" 
   transform="translate(0 0) scale(1 1)">
<path d="M4200 4000 L3500 4000" /> 
<path d="M6650 2750 L6650 2850" /> 
<path d="M4700 3700 L3500 3700" /> 
<path d="M3500 4800 L4350 4800" /> 
<path d="M4350 4300 L4050 4300" /> 
<path d="M4050 4300 L4050 4000" /> 
<path d="M3500 4000 L3500 4050" /> 
</g>
<g style="fill:#00A000; fill-opacity:1.0; 
  stroke:#00A000; stroke-linecap:round; stroke-linejoin:round; stroke-opacity:1.0; stroke-opacity:1.0; stroke-width:0" 
   transform="translate(0 0) scale(1 1)">
<ellipse cx="4050" cy="4000" rx="16" ry="16"  /> 
</g>
<g style="fill:#00A000; fill-opacity:1.0; 
  stroke:#00A000; stroke-linecap:round; stroke-linejoin:round; stroke-opacity:1.0; stroke-opacity:1.0; stroke-width:6" 
   transform="translate(0 0) scale(1 1)">
<path d="M4200 4550 L3500 4550" /> 
</g>
<g style="fill:#00A000; fill-opacity:1.0; 
  stroke:#00A000; stroke-linecap:round; stroke-linejoin:round; stroke-opacity:1.0; stroke-opacity:1.0; stroke-width:0" 
   transform="translate(0 0) scale(1 1)">
<ellipse cx="6000" cy="4100" rx="16" ry="16"  /> 
<ellipse cx="6150" cy="3300" rx="16" ry="16"  /> 
</g>
<g style="fill:#00A000; fill-opacity:1.0; 
  stroke:#00A000; stroke-linecap:round; stroke-linejoin:round; stroke-opacity:1.0; stroke-opacity:1.0; stroke-width:6" 
   transform="translate(0 0) scale(1 1)">
<path d="M6150 3500 L6250 3500" /> 
<path d="M6650 4800 L6650 4450" /> 
</g>
<g style="fill:#00A000; fill-opacity:1.0; 
  stroke:#00A000; stroke-linecap:round; stroke-linejoin:round; stroke-opacity:1.0; stroke-opacity:1.0; stroke-width:0" 
   transform="translate(0 0) scale(1 1)">
<ellipse cx="6650" cy="4600" rx="16" ry="16"  /> 
</g>
<g style="fill:#00A000; fill-opacity:1.0; 
  stroke:#00A000; stroke-linecap:round; stroke-linejoin:round; stroke-opacity:1.0; stroke-opacity:1.0; stroke-width:6" 
   transform="translate(0 0) scale(1 1)">
<path d="M6150 4100 L6200 4100" /> 
<path d="M6150 4600 L6650 4600" /> 
<path d="M6250 3500 L6250 2850" /> 
<path d="M6250 2850 L6650 2850" /> 
</g>
<g style="fill:#00A000; fill-opacity:1.0; 
  stroke:#00A000; stroke-linecap:round; stroke-linejoin:round; stroke-opacity:1.0; stroke-opacity:1.0; stroke-width:0" 
   transform="translate(0 0) scale(1 1)">
<ellipse cx="6650" cy="2850" rx="16" ry="16"  /> 
</g>
<g style="fill:#00A000; fill-opacity:1.0; 
  stroke:#0000C0; stroke-linecap:round; stroke-linejoin:round; stroke-opacity:1.0; stroke-opacity:1.0; stroke-width:6" 
   transform="translate(0 0) scale(1 1)">
<path d="M6126 3276 L6174 3324" /> 
<path d="M6174 3276 L6126 3324" /> 
</g>
<g style="fill:#000000; fill-opacity:0.0; 
  stroke:#000000; stroke-linecap:round; stroke-linejoin:round; stroke-opacity:1.0; stroke-opacity:1.0; stroke-width:6" 
   transform="translate(0 0) scale(1 1)">
<path d="M6446 4777 L6440 4774" /> 
<path d="M6440 4774 L6431 4774" /> 
<path d="M6431 4774 L6423 4777" /> 
<path d="M6423 4777 L6417 4783" /> 
<path d="M6417 4783 L6414 4789" /> 
<path d="M6414 4789 L6411 4800" /> 
<path d="M6411 4800 L6411 4809" /> 
<path d="M6411 4809 L6414 4820" /> 
<path d="M6414 4820 L6417 4826" /> 
<path d="M6417 4826 L6423 4831" /> 
<path d="M6423 4831 L6431 4834" /> 
<path d="M6431 4834 L6437 4834" /> 
<path d="M6437 4834 L6446 4831" /> 
<path d="M6446 4831 L6449 4829" /> 
<path d="M6449 4829 L6449 4809" /> 
<path d="M6449 4809 L6437 4809" /> 
<g style = "stroke-linecap:round;" > 
<path d="M6437 4809 L6437 4809" /> 
</g><path d="M6474 4834 L6474 4774" /> 
<path d="M6474 4774 L6509 4834" /> 
<path d="M6509 4834 L6509 4774" /> 
<g style = "stroke-linecap:round;" > 
<path d="M6509 4774 L6509 4774" /> 
</g><path d="M6537 4834 L6537 4774" /> 
<path d="M6537 4774 L6552 4774" /> 
<path d="M6552 4774 L6560 4777" /> 
<path d="M6560 4777 L6566 4783" /> 
<path d="M6566 4783 L6569 4789" /> 
<path d="M6569 4789 L6572 4800" /> 
<path d="M6572 4800 L6572 4809" /> 
<path d="M6572 4809 L6569 4820" /> 
<path d="M6569 4820 L6566 4826" /> 
<path d="M6566 4826 L6560 4831" /> 
<path d="M6560 4831 L6552 4834" /> 
<path d="M6552 4834 L6537 4834" /> 
<path d="M6296 2734 L6261 2734" /> 
<g style = "stroke-linecap:round;" > 
<path d="M6261 2734 L6261 2734" /> 
</g><path d="M6279 2734 L6279 2674" /> 
<path d="M6279 2674 L6273 2683" /> 
<path d="M6273 2683 L6267 2689" /> 
<path d="M6267 2689 L6261 2691" /> 
<g style = "stroke-linecap:round;" > 
<path d="M6261 2691 L6261 2691" /> 
</g><path d="M6333 2674 L6338 2674" /> 
<path d="M6338 2674 L6344 2677" /> 
<path d="M6344 2677 L6347 2680" /> 
<path d="M6347 2680 L6350 2686" /> 
<path d="M6350 2686 L6353 2697" /> 
<path d="M6353 2697 L6353 2711" /> 
<path d="M6353 2711 L6350 2723" /> 
<path d="M6350 2723 L6347 2729" /> 
<path d="M6347 2729 L6344 2731" /> 
<path d="M6344 2731 L6338 2734" /> 
<path d="M6338 2734 L6333 2734" /> 
<path d="M6333 2734 L6327 2731" /> 
<path d="M6327 2731 L6324 2729" /> 
<path d="M6324 2729 L6321 2723" /> 
<path d="M6321 2723 L6318 2711" /> 
<path d="M6318 2711 L6318 2697" /> 
<path d="M6318 2697 L6321 2686" /> 
<path d="M6321 2686 L6324 2680" /> 
<path d="M6324 2680 L6327 2677" /> 
<path d="M6327 2677 L6333 2674" /> 
<path d="M6378 2711 L6424 2711" /> 
<g style = "stroke-linecap:round;" > 
<path d="M6424 2711 L6424 2711" /> 
</g><path d="M6484 2734 L6449 2734" /> 
<g style = "stroke-linecap:round;" > 
<path d="M6449 2734 L6449 2734" /> 
</g><path d="M6467 2734 L6467 2674" /> 
<path d="M6467 2674 L6461 2683" /> 
<path d="M6461 2683 L6455 2689" /> 
<path d="M6455 2689 L6449 2691" /> 
<g style = "stroke-linecap:round;" > 
<path d="M6449 2691 L6449 2691" /> 
</g><path d="M6506 2680 L6509 2677" /> 
<path d="M6509 2677 L6515 2674" /> 
<path d="M6515 2674 L6529 2674" /> 
<path d="M6529 2674 L6535 2677" /> 
<path d="M6535 2677 L6538 2680" /> 
<path d="M6538 2680 L6541 2686" /> 
<path d="M6541 2686 L6541 2691" /> 
<path d="M6541 2691 L6538 2700" /> 
<path d="M6538 2700 L6504 2734" /> 
<path d="M6504 2734 L6541 2734" /> 
<g style = "stroke-linecap:round;" > 
<path d="M6541 2734 L6541 2734" /> 
</g><path d="M6558 2674 L6578 2734" /> 
<path d="M6578 2734 L6598 2674" /> 
<g style = "stroke-linecap:round;" > 
<path d="M6598 2674 L6598 2674" /> 
</g><path d="M3511 4867 L3540 4867" /> 
<g style = "stroke-linecap:round;" > 
<path d="M3540 4867 L3540 4867" /> 
</g><path d="M3506 4884 L3526 4824" /> 
<path d="M3526 4824 L3546 4884" /> 
<g style = "stroke-linecap:round;" > 
<path d="M3546 4884 L3546 4884" /> 
</g><path d="M3600 4884 L3580 4856" /> 
<g style = "stroke-linecap:round;" > 
<path d="M3580 4856 L3580 4856" /> 
</g><path d="M3565 4884 L3565 4824" /> 
<path d="M3565 4824 L3588 4824" /> 
<path d="M3588 4824 L3594 4827" /> 
<path d="M3594 4827 L3597 4830" /> 
<path d="M3597 4830 L3600 4836" /> 
<path d="M3600 4836 L3600 4844" /> 
<path d="M3600 4844 L3597 4850" /> 
<path d="M3597 4850 L3594 4853" /> 
<path d="M3594 4853 L3588 4856" /> 
<path d="M3588 4856 L3565 4856" /> 
<g style = "stroke-linecap:round;" > 
<path d="M3565 4856 L3565 4856" /> 
</g><path d="M3625 4884 L3625 4824" /> 
<path d="M3625 4824 L3640 4824" /> 
<path d="M3640 4824 L3648 4827" /> 
<path d="M3648 4827 L3654 4833" /> 
<path d="M3654 4833 L3657 4839" /> 
<path d="M3657 4839 L3660 4850" /> 
<path d="M3660 4850 L3660 4859" /> 
<path d="M3660 4859 L3657 4870" /> 
<path d="M3657 4870 L3654 4876" /> 
<path d="M3654 4876 L3648 4881" /> 
<path d="M3648 4881 L3640 4884" /> 
<path d="M3640 4884 L3625 4884" /> 
<path d="M3685 4824 L3685 4873" /> 
<path d="M3685 4873 L3688 4879" /> 
<path d="M3688 4879 L3691 4881" /> 
<path d="M3691 4881 L3697 4884" /> 
<path d="M3697 4884 L3708 4884" /> 
<path d="M3708 4884 L3714 4881" /> 
<path d="M3714 4881 L3717 4879" /> 
<path d="M3717 4879 L3720 4873" /> 
<path d="M3720 4873 L3720 4824" /> 
<g style = "stroke-linecap:round;" > 
<path d="M3720 4824 L3720 4824" /> 
</g><path d="M3748 4884 L3748 4824" /> 
<g style = "stroke-linecap:round;" > 
<path d="M3748 4824 L3748 4824" /> 
</g><path d="M3777 4884 L3777 4824" /> 
<path d="M3777 4824 L3812 4884" /> 
<path d="M3812 4884 L3812 4824" /> 
<g style = "stroke-linecap:round;" > 
<path d="M3812 4824 L3812 4824" /> 
</g><path d="M3852 4824 L3863 4824" /> 
<path d="M3863 4824 L3869 4827" /> 
<path d="M3869 4827 L3875 4833" /> 
<path d="M3875 4833 L3877 4844" /> 
<path d="M3877 4844 L3877 4864" /> 
<path d="M3877 4864 L3875 4876" /> 
<path d="M3875 4876 L3869 4881" /> 
<path d="M3869 4881 L3863 4884" /> 
<path d="M3863 4884 L3852 4884" /> 
<path d="M3852 4884 L3846 4881" /> 
<path d="M3846 4881 L3840 4876" /> 
<path d="M3840 4876 L3837 4864" /> 
<path d="M3837 4864 L3837 4844" /> 
<path d="M3837 4844 L3840 4833" /> 
<path d="M3840 4833 L3846 4827" /> 
<path d="M3846 4827 L3852 4824" /> 
<path d="M3941 4824 L3961 4884" /> 
<path d="M3961 4884 L3981 4824" /> 
<g style = "stroke-linecap:round;" > 
<path d="M3981 4824 L3981 4824" /> 
</g><path d="M4035 4879 L4032 4881" /> 
<path d="M4032 4881 L4023 4884" /> 
<path d="M4023 4884 L4017 4884" /> 
<path d="M4017 4884 L4009 4881" /> 
<path d="M4009 4881 L4003 4876" /> 
<path d="M4003 4876 L4000 4870" /> 
<path d="M4000 4870 L3997 4859" /> 
<path d="M3997 4859 L3997 4850" /> 
<path d="M3997 4850 L4000 4839" /> 
<path d="M4000 4839 L4003 4833" /> 
<path d="M4003 4833 L4009 4827" /> 
<path d="M4009 4827 L4017 4824" /> 
<path d="M4017 4824 L4023 4824" /> 
<path d="M4023 4824 L4032 4827" /> 
<path d="M4032 4827 L4035 4830" /> 
<g style = "stroke-linecap:round;" > 
<path d="M4035 4830 L4035 4830" /> 
</g><path d="M4095 4879 L4092 4881" /> 
<path d="M4092 4881 L4083 4884" /> 
<path d="M4083 4884 L4077 4884" /> 
<path d="M4077 4884 L4069 4881" /> 
<path d="M4069 4881 L4063 4876" /> 
<path d="M4063 4876 L4060 4870" /> 
<path d="M4060 4870 L4057 4859" /> 
<path d="M4057 4859 L4057 4850" /> 
<path d="M4057 4850 L4060 4839" /> 
<path d="M4060 4839 L4063 4833" /> 
<path d="M4063 4833 L4069 4827" /> 
<path d="M4069 4827 L4077 4824" /> 
<path d="M4077 4824 L4083 4824" /> 
<path d="M4083 4824 L4092 4827" /> 
<path d="M4092 4827 L4095 4830" /> 
<g style = "stroke-linecap:round;" > 
<path d="M4095 4830 L4095 4830" /> 
</g><path d="M3506 4424 L3526 4484" /> 
<path d="M3526 4484 L3546 4424" /> 
<g style = "stroke-linecap:round;" > 
<path d="M3546 4424 L3546 4424" /> 
</g><path d="M3600 4484 L3580 4456" /> 
<g style = "stroke-linecap:round;" > 
<path d="M3580 4456 L3580 4456" /> 
</g><path d="M3565 4484 L3565 4424" /> 
<path d="M3565 4424 L3588 4424" /> 
<path d="M3588 4424 L3594 4427" /> 
<path d="M3594 4427 L3597 4430" /> 
<path d="M3597 4430 L3600 4436" /> 
<path d="M3600 4436 L3600 4444" /> 
<path d="M3600 4444 L3597 4450" /> 
<path d="M3597 4450 L3594 4453" /> 
<path d="M3594 4453 L3588 4456" /> 
<path d="M3588 4456 L3565 4456" /> 
<g style = "stroke-linecap:round;" > 
<path d="M3565 4456 L3565 4456" /> 
</g><path d="M3625 4453 L3645 4453" /> 
<g style = "stroke-linecap:round;" > 
<path d="M3645 4453 L3645 4453" /> 
</g><path d="M3654 4484 L3625 4484" /> 
<path d="M3625 4484 L3625 4424" /> 
<path d="M3625 4424 L3654 4424" /> 
<g style = "stroke-linecap:round;" > 
<path d="M3654 4424 L3654 4424" /> 
</g><path d="M3699 4453 L3679 4453" /> 
<g style = "stroke-linecap:round;" > 
<path d="M3679 4453 L3679 4453" /> 
</g><path d="M3679 4484 L3679 4424" /> 
<path d="M3679 4424 L3708 4424" /> 
<g style = "stroke-linecap:round;" > 
<path d="M3708 4424 L3708 4424" /> 
</g><path d="M3788 4424 L3799 4424" /> 
<path d="M3799 4424 L3805 4427" /> 
<path d="M3805 4427 L3811 4433" /> 
<path d="M3811 4433 L3813 4444" /> 
<path d="M3813 4444 L3813 4464" /> 
<path d="M3813 4464 L3811 4476" /> 
<path d="M3811 4476 L3805 4481" /> 
<path d="M3805 4481 L3799 4484" /> 
<path d="M3799 4484 L3788 4484" /> 
<path d="M3788 4484 L3782 4481" /> 
<path d="M3782 4481 L3776 4476" /> 
<path d="M3776 4476 L3773 4464" /> 
<path d="M3773 4464 L3773 4444" /> 
<path d="M3773 4444 L3776 4433" /> 
<path d="M3776 4433 L3782 4427" /> 
<path d="M3782 4427 L3788 4424" /> 
<path d="M3839 4424 L3839 4473" /> 
<path d="M3839 4473 L3842 4479" /> 
<path d="M3842 4479 L3845 4481" /> 
<path d="M3845 4481 L3851 4484" /> 
<path d="M3851 4484 L3862 4484" /> 
<path d="M3862 4484 L3868 4481" /> 
<path d="M3868 4481 L3871 4479" /> 
<path d="M3871 4479 L3874 4473" /> 
<path d="M3874 4473 L3874 4424" /> 
<g style = "stroke-linecap:round;" > 
<path d="M3874 4424 L3874 4424" /> 
</g><path d="M3894 4424 L3928 4424" /> 
<g style = "stroke-linecap:round;" > 
<path d="M3928 4424 L3928 4424" /> 
</g><path d="M3911 4484 L3911 4424" /> 
<g style = "stroke-linecap:round;" > 
<path d="M3911 4424 L3911 4424" /> 
</g><path d="M3461 3917 L3490 3917" /> 
<g style = "stroke-linecap:round;" > 
<path d="M3490 3917 L3490 3917" /> 
</g><path d="M3456 3934 L3476 3874" /> 
<path d="M3476 3874 L3496 3934" /> 
<g style = "stroke-linecap:round;" > 
<path d="M3496 3934 L3496 3934" /> 
</g><path d="M3550 3934 L3530 3906" /> 
<g style = "stroke-linecap:round;" > 
<path d="M3530 3906 L3530 3906" /> 
</g><path d="M3515 3934 L3515 3874" /> 
<path d="M3515 3874 L3538 3874" /> 
<path d="M3538 3874 L3544 3877" /> 
<path d="M3544 3877 L3547 3880" /> 
<path d="M3547 3880 L3550 3886" /> 
<path d="M3550 3886 L3550 3894" /> 
<path d="M3550 3894 L3547 3900" /> 
<path d="M3547 3900 L3544 3903" /> 
<path d="M3544 3903 L3538 3906" /> 
<path d="M3538 3906 L3515 3906" /> 
<g style = "stroke-linecap:round;" > 
<path d="M3515 3906 L3515 3906" /> 
</g><path d="M3575 3934 L3575 3874" /> 
<path d="M3575 3874 L3590 3874" /> 
<path d="M3590 3874 L3598 3877" /> 
<path d="M3598 3877 L3604 3883" /> 
<path d="M3604 3883 L3607 3889" /> 
<path d="M3607 3889 L3610 3900" /> 
<path d="M3610 3900 L3610 3909" /> 
<path d="M3610 3909 L3607 3920" /> 
<path d="M3607 3920 L3604 3926" /> 
<path d="M3604 3926 L3598 3931" /> 
<path d="M3598 3931 L3590 3934" /> 
<path d="M3590 3934 L3575 3934" /> 
<path d="M3635 3874 L3635 3923" /> 
<path d="M3635 3923 L3638 3929" /> 
<path d="M3638 3929 L3641 3931" /> 
<path d="M3641 3931 L3647 3934" /> 
<path d="M3647 3934 L3658 3934" /> 
<path d="M3658 3934 L3664 3931" /> 
<path d="M3664 3931 L3667 3929" /> 
<path d="M3667 3929 L3670 3923" /> 
<path d="M3670 3923 L3670 3874" /> 
<g style = "stroke-linecap:round;" > 
<path d="M3670 3874 L3670 3874" /> 
</g><path d="M3698 3934 L3698 3874" /> 
<g style = "stroke-linecap:round;" > 
<path d="M3698 3874 L3698 3874" /> 
</g><path d="M3727 3934 L3727 3874" /> 
<path d="M3727 3874 L3762 3934" /> 
<path d="M3762 3934 L3762 3874" /> 
<g style = "stroke-linecap:round;" > 
<path d="M3762 3874 L3762 3874" /> 
</g><path d="M3802 3874 L3813 3874" /> 
<path d="M3813 3874 L3819 3877" /> 
<path d="M3819 3877 L3825 3883" /> 
<path d="M3825 3883 L3827 3894" /> 
<path d="M3827 3894 L3827 3914" /> 
<path d="M3827 3914 L3825 3926" /> 
<path d="M3825 3926 L3819 3931" /> 
<path d="M3819 3931 L3813 3934" /> 
<path d="M3813 3934 L3802 3934" /> 
<path d="M3802 3934 L3796 3931" /> 
<path d="M3796 3931 L3790 3926" /> 
<path d="M3790 3926 L3787 3914" /> 
<path d="M3787 3914 L3787 3894" /> 
<path d="M3787 3894 L3790 3883" /> 
<path d="M3790 3883 L3796 3877" /> 
<path d="M3796 3877 L3802 3874" /> 
<path d="M3931 3877 L3925 3874" /> 
<path d="M3925 3874 L3916 3874" /> 
<path d="M3916 3874 L3908 3877" /> 
<path d="M3908 3877 L3902 3883" /> 
<path d="M3902 3883 L3899 3889" /> 
<path d="M3899 3889 L3896 3900" /> 
<path d="M3896 3900 L3896 3909" /> 
<path d="M3896 3909 L3899 3920" /> 
<path d="M3899 3920 L3902 3926" /> 
<path d="M3902 3926 L3908 3931" /> 
<path d="M3908 3931 L3916 3934" /> 
<path d="M3916 3934 L3922 3934" /> 
<path d="M3922 3934 L3931 3931" /> 
<path d="M3931 3931 L3934 3929" /> 
<path d="M3934 3929 L3934 3909" /> 
<path d="M3934 3909 L3922 3909" /> 
<g style = "stroke-linecap:round;" > 
<path d="M3922 3909 L3922 3909" /> 
</g><path d="M3959 3934 L3959 3874" /> 
<path d="M3959 3874 L3994 3934" /> 
<path d="M3994 3934 L3994 3874" /> 
<g style = "stroke-linecap:round;" > 
<path d="M3994 3874 L3994 3874" /> 
</g><path d="M4022 3934 L4022 3874" /> 
<path d="M4022 3874 L4037 3874" /> 
<path d="M4037 3874 L4045 3877" /> 
<path d="M4045 3877 L4051 3883" /> 
<path d="M4051 3883 L4054 3889" /> 
<path d="M4054 3889 L4057 3900" /> 
<path d="M4057 3900 L4057 3909" /> 
<path d="M4057 3909 L4054 3920" /> 
<path d="M4054 3920 L4051 3926" /> 
<path d="M4051 3926 L4045 3931" /> 
<path d="M4045 3931 L4037 3934" /> 
<path d="M4037 3934 L4022 3934" /> 
<path d="M3514 3634 L3514 3574" /> 
<path d="M3514 3574 L3537 3574" /> 
<path d="M3537 3574 L3543 3577" /> 
<path d="M3543 3577 L3546 3580" /> 
<path d="M3546 3580 L3549 3586" /> 
<path d="M3549 3586 L3549 3594" /> 
<path d="M3549 3594 L3546 3600" /> 
<path d="M3546 3600 L3543 3603" /> 
<path d="M3543 3603 L3537 3606" /> 
<path d="M3537 3606 L3514 3606" /> 
<g style = "stroke-linecap:round;" > 
<path d="M3514 3606 L3514 3606" /> 
</g><path d="M3569 3574 L3583 3634" /> 
<path d="M3583 3634 L3594 3591" /> 
<path d="M3594 3591 L3606 3634" /> 
<path d="M3606 3634 L3620 3574" /> 
<g style = "stroke-linecap:round;" > 
<path d="M3620 3574 L3620 3574" /> 
</g><path d="M3643 3634 L3643 3574" /> 
<path d="M3643 3574 L3663 3617" /> 
<path d="M3663 3617 L3683 3574" /> 
<path d="M3683 3574 L3683 3634" /> 
<g style = "stroke-linecap:round;" > 
<path d="M3683 3634 L3683 3634" /> 
</g><path d="M3758 3634 L3758 3574" /> 
<g style = "stroke-linecap:round;" > 
<path d="M3758 3574 L3758 3574" /> 
</g><path d="M3787 3634 L3787 3574" /> 
<path d="M3787 3574 L3822 3634" /> 
<path d="M3822 3634 L3822 3574" /> 
<g style = "stroke-linecap:round;" > 
<path d="M3822 3574 L3822 3574" /> 
</g></g>
<g style="fill:#A00000; fill-opacity:0.0; 
  stroke:#A00000; stroke-linecap:round; stroke-linejoin:round; stroke-opacity:1.0; stroke-opacity:1.0; stroke-width:6" 
   transform="translate(0 0) scale(1 1)">
<path d="M6600 4800 L6650 4850" /> 
<path d="M6650 4850 L6700 4800" /> 
<path d="M6700 4800 L6600 4800" /> 
<ellipse cx="3500" cy="4750" rx="20" ry="20"  /> 
<path d="M3500 4800 L3500 4770" /> 
<path d="M3500 4770 L3500 4770" /> 
<path d="M3500 4770 L3500 4770" /> 
<g style = "stroke-linecap:round;" > 
<path d="M3500 4770 L3500 4770" /> 
</g></g>
<g style="fill:#A000A0; fill-opacity:0.0; 
  stroke:#A000A0; stroke-linecap:round; stroke-linejoin:round; stroke-opacity:1.0; stroke-opacity:1.0; stroke-width:5" 
   transform="translate(0 0) scale(1 1)">
<path d="M3461 4711 L3484 4711" /> 
<g style = "stroke-linecap:round;" > 
<path d="M3484 4711 L3484 4711" /> 
</g><path d="M3473 4722 L3473 4699" /> 
<g style = "stroke-linecap:round;" > 
<path d="M3473 4699 L3473 4699" /> 
</g><path d="M3512 4692 L3498 4692" /> 
<path d="M3498 4692 L3497 4706" /> 
<path d="M3497 4706 L3498 4705" /> 
<path d="M3498 4705 L3501 4704" /> 
<path d="M3501 4704 L3508 4704" /> 
<path d="M3508 4704 L3511 4705" /> 
<path d="M3511 4705 L3512 4706" /> 
<path d="M3512 4706 L3514 4709" /> 
<path d="M3514 4709 L3514 4716" /> 
<path d="M3514 4716 L3512 4719" /> 
<path d="M3512 4719 L3511 4721" /> 
<path d="M3511 4721 L3508 4722" /> 
<path d="M3508 4722 L3501 4722" /> 
<path d="M3501 4722 L3498 4721" /> 
<path d="M3498 4721 L3497 4719" /> 
<g style = "stroke-linecap:round;" > 
<path d="M3497 4719 L3497 4719" /> 
</g><path d="M3523 4692 L3533 4722" /> 
<path d="M3533 4722 L3543 4692" /> 
<g style = "stroke-linecap:round;" > 
<path d="M3543 4692 L3543 4692" /> 
</g></g>
<g style="fill:#A00000; fill-opacity:0.0; 
  stroke:#A00000; stroke-linecap:round; stroke-linejoin:round; stroke-opacity:1.0; stroke-opacity:1.0; stroke-width:6" 
   transform="translate(0 0) scale(1 1)">
<path d="M3450 4050 L3500 4100" /> 
<path d="M3500 4100 L3550 4050" /> 
<path d="M3550 4050 L3450 4050" /> 
</g>
<g style="fill:#000000; fill-opacity:0.0; 
  stroke:#A00000; stroke-linecap:round; stroke-linejoin:round; stroke-opacity:1.0; stroke-opacity:1.0; stroke-width:6" 
   transform="translate(0 0) scale(1 1)">
<polygon style="fill-rule:evenodd; " 
points="4300,4700
4300,4700
4300,4400
4400,4400
4400,4700
" /> 
</g>
<g style="fill:#A00000; fill-opacity:1.0; 
  stroke:#A00000; stroke-linecap:round; stroke-linejoin:round; stroke-opacity:1.0; stroke-opacity:1.0; stroke-width:6" 
   transform="translate(0 0) scale(1 1)">
<polygon style="fill-rule:evenodd; " 
points="4280,4570
4280,4530
4300,4550
" /> 
<path d="M4350 4700 L4350 4800" /> 
</g>
<g style="fill:#A00000; fill-opacity:0.0; 
  stroke:#A00000; stroke-linecap:round; stroke-linejoin:round; stroke-opacity:1.0; stroke-opacity:1.0; stroke-width:6" 
   transform="translate(0 0) scale(1 1)">
<path d="M4336 4739 L4336 4761" /> 
<g style = "stroke-linecap:round;" > 
<path d="M4336 4761 L4336 4761" /> 
</g><path d="M4336 4750 L4296 4750" /> 
<path d="M4296 4750 L4302 4754" /> 
<path d="M4302 4754 L4306 4758" /> 
<path d="M4306 4758 L4308 4761" /> 
<g style = "stroke-linecap:round;" > 
<path d="M4308 4761 L4308 4761" /> 
</g><path d="M4280 4550 L4200 4550" /> 
<path d="M4229 4500 L4231 4498" /> 
<path d="M4231 4498 L4234 4496" /> 
<path d="M4234 4496 L4244 4496" /> 
<path d="M4244 4496 L4248 4498" /> 
<path d="M4248 4498 L4250 4500" /> 
<path d="M4250 4500 L4251 4504" /> 
<path d="M4251 4504 L4251 4508" /> 
<path d="M4251 4508 L4250 4513" /> 
<path d="M4250 4513 L4227 4536" /> 
<path d="M4227 4536 L4251 4536" /> 
<g style = "stroke-linecap:round;" > 
<path d="M4251 4536 L4251 4536" /> 
</g><path d="M4350 4400 L4350 4300" /> 
<path d="M4296 4363 L4296 4339" /> 
<path d="M4296 4339 L4311 4352" /> 
<path d="M4311 4352 L4311 4346" /> 
<path d="M4311 4346 L4313 4342" /> 
<path d="M4313 4342 L4315 4340" /> 
<path d="M4315 4340 L4319 4339" /> 
<path d="M4319 4339 L4329 4339" /> 
<path d="M4329 4339 L4332 4340" /> 
<path d="M4332 4340 L4334 4342" /> 
<path d="M4334 4342 L4336 4346" /> 
<path d="M4336 4346 L4336 4358" /> 
<path d="M4336 4358 L4334 4361" /> 
<path d="M4334 4361 L4332 4363" /> 
<g style = "stroke-linecap:round;" > 
<path d="M4332 4363 L4332 4363" /> 
</g></g>
<g style="fill:#A000A0; fill-opacity:0.0; 
  stroke:#A000A0; stroke-linecap:round; stroke-linejoin:round; stroke-opacity:1.0; stroke-opacity:1.0; stroke-width:6" 
   transform="translate(0 0) scale(1 1)">
<path d="M4470 4556 L4446 4572" /> 
<g style = "stroke-linecap:round;" > 
<path d="M4446 4572 L4446 4572" /> 
</g><path d="M4470 4584 L4420 4584" /> 
<path d="M4420 4584 L4420 4565" /> 
<path d="M4420 4565 L4423 4560" /> 
<path d="M4423 4560 L4425 4558" /> 
<path d="M4425 4558 L4430 4556" /> 
<path d="M4430 4556 L4437 4556" /> 
<path d="M4437 4556 L4442 4558" /> 
<path d="M4442 4558 L4444 4560" /> 
<path d="M4444 4560 L4446 4565" /> 
<path d="M4446 4565 L4446 4584" /> 
<g style = "stroke-linecap:round;" > 
<path d="M4446 4584 L4446 4584" /> 
</g><path d="M4420 4541 L4470 4525" /> 
<path d="M4470 4525 L4420 4508" /> 
<g style = "stroke-linecap:round;" > 
<path d="M4420 4508 L4420 4508" /> 
</g><path d="M4370 4608 L4320 4608" /> 
<path d="M4320 4608 L4320 4589" /> 
<path d="M4320 4589 L4323 4584" /> 
<path d="M4323 4584 L4325 4582" /> 
<path d="M4325 4582 L4330 4580" /> 
<path d="M4330 4580 L4337 4580" /> 
<path d="M4337 4580 L4342 4582" /> 
<path d="M4342 4582 L4344 4584" /> 
<path d="M4344 4584 L4346 4589" /> 
<path d="M4346 4589 L4346 4608" /> 
<g style = "stroke-linecap:round;" > 
<path d="M4346 4608 L4346 4608" /> 
</g><path d="M4320 4549 L4320 4539" /> 
<path d="M4320 4539 L4323 4534" /> 
<path d="M4323 4534 L4327 4530" /> 
<path d="M4327 4530 L4337 4527" /> 
<path d="M4337 4527 L4354 4527" /> 
<path d="M4354 4527 L4363 4530" /> 
<path d="M4363 4530 L4368 4534" /> 
<path d="M4368 4534 L4370 4539" /> 
<path d="M4370 4539 L4370 4549" /> 
<path d="M4370 4549 L4368 4553" /> 
<path d="M4368 4553 L4363 4558" /> 
<path d="M4363 4558 L4354 4560" /> 
<path d="M4354 4560 L4337 4560" /> 
<path d="M4337 4560 L4327 4558" /> 
<path d="M4327 4558 L4323 4553" /> 
<path d="M4323 4553 L4320 4549" /> 
<path d="M4320 4513 L4320 4485" /> 
<g style = "stroke-linecap:round;" > 
<path d="M4320 4485 L4320 4485" /> 
</g><path d="M4370 4499 L4320 4499" /> 
<g style = "stroke-linecap:round;" > 
<path d="M4320 4499 L4320 4499" /> 
</g></g>
<g style="fill:#000000; fill-opacity:0.0; 
  stroke:#A00000; stroke-linecap:round; stroke-linejoin:round; stroke-opacity:1.0; stroke-opacity:1.0; stroke-width:12" 
   transform="translate(0 0) scale(1 1)">
<polygon style="fill-rule:evenodd; " 
points="6610,2950
6610,2950
6610,3250
6690,3250
6690,2950
" /> 
</g>
<g style="fill:#000000; fill-opacity:0.0; 
  stroke:#A00000; stroke-linecap:round; stroke-linejoin:round; stroke-opacity:1.0; stroke-opacity:1.0; stroke-width:6" 
   transform="translate(0 0) scale(1 1)">
<path d="M6650 2950 L6650 2850" /> 
<path d="M6650 3250 L6650 3350" /> 
</g>
<g style="fill:#A000A0; fill-opacity:0.0; 
  stroke:#A000A0; stroke-linecap:round; stroke-linejoin:round; stroke-opacity:1.0; stroke-opacity:1.0; stroke-width:6" 
   transform="translate(0 0) scale(1 1)">
<path d="M6750 3105 L6726 3121" /> 
<g style = "stroke-linecap:round;" > 
<path d="M6726 3121 L6726 3121" /> 
</g><path d="M6750 3133 L6700 3133" /> 
<path d="M6700 3133 L6700 3114" /> 
<path d="M6700 3114 L6703 3109" /> 
<path d="M6703 3109 L6705 3107" /> 
<path d="M6705 3107 L6710 3105" /> 
<path d="M6710 3105 L6717 3105" /> 
<path d="M6717 3105 L6722 3107" /> 
<path d="M6722 3107 L6724 3109" /> 
<path d="M6724 3109 L6726 3114" /> 
<path d="M6726 3114 L6726 3133" /> 
<g style = "stroke-linecap:round;" > 
<path d="M6726 3133 L6726 3133" /> 
</g><path d="M6748 3085 L6750 3081" /> 
<path d="M6750 3081 L6750 3071" /> 
<path d="M6750 3071 L6748 3066" /> 
<path d="M6748 3066 L6743 3064" /> 
<path d="M6743 3064 L6741 3064" /> 
<path d="M6741 3064 L6736 3066" /> 
<path d="M6736 3066 L6734 3071" /> 
<path d="M6734 3071 L6734 3078" /> 
<path d="M6734 3078 L6731 3083" /> 
<path d="M6731 3083 L6726 3085" /> 
<path d="M6726 3085 L6724 3085" /> 
<path d="M6724 3085 L6719 3083" /> 
<path d="M6719 3083 L6717 3078" /> 
<path d="M6717 3078 L6717 3071" /> 
<path d="M6717 3071 L6719 3066" /> 
<g style = "stroke-linecap:round;" > 
<path d="M6719 3066 L6719 3066" /> 
</g><path d="M6620 3088 L6620 3112" /> 
<path d="M6620 3112 L6644 3114" /> 
<path d="M6644 3114 L6642 3112" /> 
<path d="M6642 3112 L6639 3107" /> 
<path d="M6639 3107 L6639 3095" /> 
<path d="M6639 3095 L6642 3091" /> 
<path d="M6642 3091 L6644 3088" /> 
<path d="M6644 3088 L6649 3086" /> 
<path d="M6649 3086 L6661 3086" /> 
<path d="M6661 3086 L6665 3088" /> 
<path d="M6665 3088 L6668 3091" /> 
<path d="M6668 3091 L6670 3095" /> 
<path d="M6670 3095 L6670 3107" /> 
<path d="M6670 3107 L6668 3112" /> 
<path d="M6668 3112 L6665 3114" /> 
<g style = "stroke-linecap:round;" > 
<path d="M6665 3114 L6665 3114" /> 
</g></g>
<g style="fill:#000000; fill-opacity:0.0; 
  stroke:#A00000; stroke-linecap:round; stroke-linejoin:round; stroke-opacity:1.0; stroke-opacity:1.0; stroke-width:12" 
   transform="translate(0 0) scale(1 1)">
<polygon style="fill-rule:evenodd; " 
points="4300,4040
4300,4040
4300,3960
4600,3960
4600,4040
" /> 
</g>
<g style="fill:#000000; fill-opacity:0.0; 
  stroke:#A00000; stroke-linecap:round; stroke-linejoin:round; stroke-opacity:1.0; stroke-opacity:1.0; stroke-width:6" 
   transform="translate(0 0) scale(1 1)">
<path d="M4300 4000 L4200 4000" /> 
<path d="M4600 4000 L4700 4000" /> 
</g>
<g style="fill:#A000A0; fill-opacity:0.0; 
  stroke:#A000A0; stroke-linecap:round; stroke-linejoin:round; stroke-opacity:1.0; stroke-opacity:1.0; stroke-width:6" 
   transform="translate(0 0) scale(1 1)">
<path d="M4441 3940 L4425 3916" /> 
<g style = "stroke-linecap:round;" > 
<path d="M4425 3916 L4425 3916" /> 
</g><path d="M4413 3940 L4413 3890" /> 
<path d="M4413 3890 L4432 3890" /> 
<path d="M4432 3890 L4437 3893" /> 
<path d="M4437 3893 L4439 3895" /> 
<path d="M4439 3895 L4441 3900" /> 
<path d="M4441 3900 L4441 3907" /> 
<path d="M4441 3907 L4439 3912" /> 
<path d="M4439 3912 L4437 3914" /> 
<path d="M4437 3914 L4432 3916" /> 
<path d="M4432 3916 L4413 3916" /> 
<g style = "stroke-linecap:round;" > 
<path d="M4413 3916 L4413 3916" /> 
</g><path d="M4489 3940 L4461 3940" /> 
<g style = "stroke-linecap:round;" > 
<path d="M4461 3940 L4461 3940" /> 
</g><path d="M4475 3940 L4475 3890" /> 
<path d="M4475 3890 L4470 3897" /> 
<path d="M4470 3897 L4465 3902" /> 
<path d="M4465 3902 L4461 3905" /> 
<g style = "stroke-linecap:round;" > 
<path d="M4461 3905 L4461 3905" /> 
</g><path d="M4388 3975 L4390 3973" /> 
<path d="M4390 3973 L4395 3970" /> 
<path d="M4395 3970 L4407 3970" /> 
<path d="M4407 3970 L4411 3973" /> 
<path d="M4411 3973 L4414 3975" /> 
<path d="M4414 3975 L4416 3980" /> 
<path d="M4416 3980 L4416 3985" /> 
<path d="M4416 3985 L4414 3992" /> 
<path d="M4414 3992 L4385 4020" /> 
<path d="M4385 4020 L4416 4020" /> 
<g style = "stroke-linecap:round;" > 
<path d="M4416 4020 L4416 4020" /> 
</g><path d="M4436 3975 L4438 3973" /> 
<path d="M4438 3973 L4443 3970" /> 
<path d="M4443 3970 L4455 3970" /> 
<path d="M4455 3970 L4459 3973" /> 
<path d="M4459 3973 L4462 3975" /> 
<path d="M4462 3975 L4464 3980" /> 
<path d="M4464 3980 L4464 3985" /> 
<path d="M4464 3985 L4462 3992" /> 
<path d="M4462 3992 L4433 4020" /> 
<path d="M4433 4020 L4464 4020" /> 
<g style = "stroke-linecap:round;" > 
<path d="M4464 4020 L4464 4020" /> 
</g><path d="M4495 3970 L4500 3970" /> 
<path d="M4500 3970 L4505 3973" /> 
<path d="M4505 3973 L4507 3975" /> 
<path d="M4507 3975 L4510 3980" /> 
<path d="M4510 3980 L4512 3989" /> 
<path d="M4512 3989 L4512 4001" /> 
<path d="M4512 4001 L4510 4011" /> 
<path d="M4510 4011 L4507 4015" /> 
<path d="M4507 4015 L4505 4018" /> 
<path d="M4505 4018 L4500 4020" /> 
<path d="M4500 4020 L4495 4020" /> 
<path d="M4495 4020 L4491 4018" /> 
<path d="M4491 4018 L4488 4015" /> 
<path d="M4488 4015 L4486 4011" /> 
<path d="M4486 4011 L4484 4001" /> 
<path d="M4484 4001 L4484 3989" /> 
<path d="M4484 3989 L4486 3980" /> 
<path d="M4486 3980 L4488 3975" /> 
<path d="M4488 3975 L4491 3973" /> 
<path d="M4491 3973 L4495 3970" /> 
</g>
<g style="fill:#000000; fill-opacity:0.0; 
  stroke:#A00000; stroke-linecap:round; stroke-linejoin:round; stroke-opacity:1.0; stroke-opacity:1.0; stroke-width:12" 
   transform="translate(0 0) scale(1 1)">
<polygon style="fill-rule:evenodd; " 
points="6110,4200
6110,4200
6110,4500
6190,4500
6190,4200
" /> 
</g>
<g style="fill:#000000; fill-opacity:0.0; 
  stroke:#A00000; stroke-linecap:round; stroke-linejoin:round; stroke-opacity:1.0; stroke-opacity:1.0; stroke-width:6" 
   transform="translate(0 0) scale(1 1)">
<path d="M6150 4200 L6150 4100" /> 
<path d="M6150 4500 L6150 4600" /> 
</g>
<g style="fill:#A000A0; fill-opacity:0.0; 
  stroke:#A000A0; stroke-linecap:round; stroke-linejoin:round; stroke-opacity:1.0; stroke-opacity:1.0; stroke-width:6" 
   transform="translate(0 0) scale(1 1)">
<path d="M6250 4359 L6226 4375" /> 
<g style = "stroke-linecap:round;" > 
<path d="M6226 4375 L6226 4375" /> 
</g><path d="M6250 4387 L6200 4387" /> 
<path d="M6200 4387 L6200 4368" /> 
<path d="M6200 4368 L6203 4363" /> 
<path d="M6203 4363 L6205 4361" /> 
<path d="M6205 4361 L6210 4359" /> 
<path d="M6210 4359 L6217 4359" /> 
<path d="M6217 4359 L6222 4361" /> 
<path d="M6222 4361 L6224 4363" /> 
<path d="M6224 4363 L6226 4368" /> 
<path d="M6226 4368 L6226 4387" /> 
<g style = "stroke-linecap:round;" > 
<path d="M6226 4387 L6226 4387" /> 
</g><path d="M6205 4339 L6203 4337" /> 
<path d="M6203 4337 L6200 4332" /> 
<path d="M6200 4332 L6200 4320" /> 
<path d="M6200 4320 L6203 4316" /> 
<path d="M6203 4316 L6205 4313" /> 
<path d="M6205 4313 L6210 4311" /> 
<path d="M6210 4311 L6215 4311" /> 
<path d="M6215 4311 L6222 4313" /> 
<path d="M6222 4313 L6250 4342" /> 
<path d="M6250 4342 L6250 4311" /> 
<g style = "stroke-linecap:round;" > 
<path d="M6250 4311 L6250 4311" /> 
</g><path d="M6170 4380 L6170 4408" /> 
<g style = "stroke-linecap:round;" > 
<path d="M6170 4408 L6170 4408" /> 
</g><path d="M6170 4394 L6120 4394" /> 
<path d="M6120 4394 L6127 4399" /> 
<path d="M6127 4399 L6132 4404" /> 
<path d="M6132 4404 L6135 4408" /> 
<g style = "stroke-linecap:round;" > 
<path d="M6135 4408 L6135 4408" /> 
</g><path d="M6120 4349 L6120 4344" /> 
<path d="M6120 4344 L6123 4339" /> 
<path d="M6123 4339 L6125 4337" /> 
<path d="M6125 4337 L6130 4334" /> 
<path d="M6130 4334 L6139 4332" /> 
<path d="M6139 4332 L6151 4332" /> 
<path d="M6151 4332 L6161 4334" /> 
<path d="M6161 4334 L6165 4337" /> 
<path d="M6165 4337 L6168 4339" /> 
<path d="M6168 4339 L6170 4344" /> 
<path d="M6170 4344 L6170 4349" /> 
<path d="M6170 4349 L6168 4353" /> 
<path d="M6168 4353 L6165 4356" /> 
<path d="M6165 4356 L6161 4358" /> 
<path d="M6161 4358 L6151 4360" /> 
<path d="M6151 4360 L6139 4360" /> 
<path d="M6139 4360 L6130 4358" /> 
<path d="M6130 4358 L6125 4356" /> 
<path d="M6125 4356 L6123 4353" /> 
<path d="M6123 4353 L6120 4349" /> 
<path d="M6170 4310 L6120 4310" /> 
<g style = "stroke-linecap:round;" > 
<path d="M6120 4310 L6120 4310" /> 
</g><path d="M6151 4305 L6170 4291" /> 
<g style = "stroke-linecap:round;" > 
<path d="M6170 4291 L6170 4291" /> 
</g><path d="M6137 4291 L6156 4310" /> 
<g style = "stroke-linecap:round;" > 
<path d="M6156 4310 L6156 4310" /> 
</g></g>
<g style="fill:#A00000; fill-opacity:0.0; 
  stroke:#A00000; stroke-linecap:round; stroke-linejoin:round; stroke-opacity:1.0; stroke-opacity:1.0; stroke-width:6" 
   transform="translate(0 0) scale(1 1)">
<path d="M6500 4250 L6500 3950" /> 
<g style = "stroke-linecap:round;" > 
<path d="M6500 3950 L6500 3950" /> 
</g><path d="M6500 4200 L6650 4200" /> 
<g style = "stroke-linecap:round;" > 
<path d="M6650 4200 L6650 4200" /> 
</g><path d="M6500 4000 L6650 4000" /> 
<g style = "stroke-linecap:round;" > 
<path d="M6650 4000 L6650 4000" /> 
</g></g>
<g style="fill:#A00000; fill-opacity:0.0; 
  stroke:#A00000; stroke-linecap:round; stroke-linejoin:round; stroke-opacity:1.0; stroke-opacity:1.0; stroke-width:4" 
   transform="translate(0 0) scale(1 1)">
<path d="M6450 4000 L6450 4200" /> 
<path d="M6450 4200 L6450 4200" /> 
<g style = "stroke-linecap:round;" > 
<path d="M6450 4200 L6450 4200" /> 
</g></g>
<g style="fill:#A00000; fill-opacity:0.0; 
  stroke:#A00000; stroke-linecap:round; stroke-linejoin:round; stroke-opacity:1.0; stroke-opacity:1.0; stroke-width:6" 
   transform="translate(0 0) scale(1 1)">
<path d="M6450 4100 L6350 4150" /> 
<path d="M6350 4150 L6350 4050" /> 
<path d="M6350 4050 L6450 4100" /> 
<path d="M6450 4100 L6450 4100" /> 
<path d="M6650 4000 L6650 3750" /> 
<path d="M6636 3885 L6596 3885" /> 
<path d="M6596 3885 L6596 3876" /> 
<path d="M6596 3876 L6598 3870" /> 
<path d="M6598 3870 L6602 3866" /> 
<path d="M6602 3866 L6606 3865" /> 
<path d="M6606 3865 L6613 3863" /> 
<path d="M6613 3863 L6619 3863" /> 
<path d="M6619 3863 L6627 3865" /> 
<path d="M6627 3865 L6630 3866" /> 
<path d="M6630 3866 L6634 3870" /> 
<path d="M6634 3870 L6636 3876" /> 
<path d="M6636 3876 L6636 3885" /> 
<path d="M6350 4100 L6200 4100" /> 
<path d="M6285 4048 L6282 4046" /> 
<path d="M6282 4046 L6276 4046" /> 
<path d="M6276 4046 L6270 4048" /> 
<path d="M6270 4048 L6266 4052" /> 
<path d="M6266 4052 L6265 4056" /> 
<path d="M6265 4056 L6263 4063" /> 
<path d="M6263 4063 L6263 4069" /> 
<path d="M6263 4069 L6265 4077" /> 
<path d="M6265 4077 L6266 4080" /> 
<path d="M6266 4080 L6270 4084" /> 
<path d="M6270 4084 L6276 4086" /> 
<path d="M6276 4086 L6280 4086" /> 
<path d="M6280 4086 L6285 4084" /> 
<path d="M6285 4084 L6287 4082" /> 
<path d="M6287 4082 L6287 4069" /> 
<path d="M6287 4069 L6280 4069" /> 
<g style = "stroke-linecap:round;" > 
<path d="M6280 4069 L6280 4069" /> 
</g><path d="M6650 4200 L6650 4450" /> 
<path d="M6634 4336 L6636 4331" /> 
<path d="M6636 4331 L6636 4321" /> 
<path d="M6636 4321 L6634 4317" /> 
<path d="M6634 4317 L6632 4315" /> 
<path d="M6632 4315 L6629 4314" /> 
<path d="M6629 4314 L6625 4314" /> 
<path d="M6625 4314 L6621 4315" /> 
<path d="M6621 4315 L6619 4317" /> 
<path d="M6619 4317 L6617 4321" /> 
<path d="M6617 4321 L6615 4329" /> 
<path d="M6615 4329 L6613 4333" /> 
<path d="M6613 4333 L6611 4334" /> 
<path d="M6611 4334 L6608 4336" /> 
<path d="M6608 4336 L6604 4336" /> 
<path d="M6604 4336 L6600 4334" /> 
<path d="M6600 4334 L6598 4333" /> 
<path d="M6598 4333 L6596 4329" /> 
<path d="M6596 4329 L6596 4319" /> 
<path d="M6596 4319 L6598 4314" /> 
<g style = "stroke-linecap:round;" > 
<path d="M6598 4314 L6598 4314" /> 
</g></g>
<g style="fill:#A000A0; fill-opacity:0.0; 
  stroke:#A000A0; stroke-linecap:round; stroke-linejoin:round; stroke-opacity:1.0; stroke-opacity:1.0; stroke-width:6" 
   transform="translate(0 0) scale(1 1)">
<path d="M6430 3885 L6424 3882" /> 
<path d="M6424 3882 L6417 3875" /> 
<path d="M6417 3875 L6407 3865" /> 
<path d="M6407 3865 L6400 3862" /> 
<path d="M6400 3862 L6394 3862" /> 
<g style = "stroke-linecap:round;" > 
<path d="M6394 3862 L6394 3862" /> 
</g><path d="M6397 3878 L6390 3875" /> 
<path d="M6390 3875 L6384 3868" /> 
<path d="M6384 3868 L6380 3855" /> 
<path d="M6380 3855 L6380 3832" /> 
<path d="M6380 3832 L6384 3818" /> 
<path d="M6384 3818 L6390 3812" /> 
<path d="M6390 3812 L6397 3808" /> 
<path d="M6397 3808 L6410 3808" /> 
<path d="M6410 3808 L6417 3812" /> 
<path d="M6417 3812 L6424 3818" /> 
<path d="M6424 3818 L6427 3832" /> 
<path d="M6427 3832 L6427 3855" /> 
<path d="M6427 3855 L6424 3868" /> 
<path d="M6424 3868 L6417 3875" /> 
<path d="M6417 3875 L6410 3878" /> 
<path d="M6410 3878 L6397 3878" /> 
<path d="M6577 4124 L6577 4064" /> 
<g style = "stroke-linecap:round;" > 
<path d="M6577 4064 L6577 4064" /> 
</g><path d="M6641 4124 L6621 4096" /> 
<g style = "stroke-linecap:round;" > 
<path d="M6621 4096 L6621 4096" /> 
</g><path d="M6606 4124 L6606 4064" /> 
<path d="M6606 4064 L6629 4064" /> 
<path d="M6629 4064 L6635 4067" /> 
<path d="M6635 4067 L6638 4070" /> 
<path d="M6638 4070 L6641 4076" /> 
<path d="M6641 4076 L6641 4084" /> 
<path d="M6641 4084 L6638 4090" /> 
<path d="M6638 4090 L6635 4093" /> 
<path d="M6635 4093 L6629 4096" /> 
<path d="M6629 4096 L6606 4096" /> 
<g style = "stroke-linecap:round;" > 
<path d="M6606 4096 L6606 4096" /> 
</g><path d="M6686 4093 L6666 4093" /> 
<g style = "stroke-linecap:round;" > 
<path d="M6666 4093 L6666 4093" /> 
</g><path d="M6666 4124 L6666 4064" /> 
<path d="M6666 4064 L6695 4064" /> 
<g style = "stroke-linecap:round;" > 
<path d="M6695 4064 L6695 4064" /> 
</g><path d="M6712 4064 L6752 4064" /> 
<path d="M6752 4064 L6712 4124" /> 
<path d="M6712 4124 L6752 4124" /> 
<g style = "stroke-linecap:round;" > 
<path d="M6752 4124 L6752 4124" /> 
</g><path d="M6769 4064 L6806 4064" /> 
<path d="M6806 4064 L6786 4087" /> 
<path d="M6786 4087 L6794 4087" /> 
<path d="M6794 4087 L6800 4090" /> 
<path d="M6800 4090 L6803 4093" /> 
<path d="M6803 4093 L6806 4099" /> 
<path d="M6806 4099 L6806 4113" /> 
<path d="M6806 4113 L6803 4119" /> 
<path d="M6803 4119 L6800 4121" /> 
<path d="M6800 4121 L6794 4124" /> 
<path d="M6794 4124 L6777 4124" /> 
<path d="M6777 4124 L6771 4121" /> 
<path d="M6771 4121 L6769 4119" /> 
<g style = "stroke-linecap:round;" > 
<path d="M6769 4119 L6769 4119" /> 
</g><path d="M6857 4084 L6857 4124" /> 
<g style = "stroke-linecap:round;" > 
<path d="M6857 4124 L6857 4124" /> 
</g><path d="M6843 4061 L6828 4104" /> 
<path d="M6828 4104 L6866 4104" /> 
<g style = "stroke-linecap:round;" > 
<path d="M6866 4104 L6866 4104" /> 
</g><path d="M6888 4124 L6888 4064" /> 
<path d="M6888 4064 L6923 4124" /> 
<path d="M6923 4124 L6923 4064" /> 
<g style = "stroke-linecap:round;" > 
<path d="M6923 4064 L6923 4064" /> 
</g></g>
<g style="fill:#000000; fill-opacity:0.0; 
  stroke:#A00000; stroke-linecap:round; stroke-linejoin:round; stroke-opacity:1.0; stroke-opacity:1.0; stroke-width:6" 
   transform="translate(0 0) scale(1 1)">
<polygon style="fill-rule:evenodd; " 
points="5000,3250
5000,3250
5000,4250
5850,4250
5850,3250
" /> 
</g>
<g style="fill:#A00000; fill-opacity:0.0; 
  stroke:#A00000; stroke-linecap:round; stroke-linejoin:round; stroke-opacity:1.0; stroke-opacity:1.0; stroke-width:6" 
   transform="translate(0 0) scale(1 1)">
<path d="M5000 3700 L5050 3700" /> 
<path d="M5050 3700 L5050 3700" /> 
<g style = "stroke-linecap:round;" > 
<path d="M5050 3700 L5050 3700" /> 
</g><path d="M5450 3700 L5450 3900" /> 
<path d="M5450 3900 L5450 3900" /> 
<g style = "stroke-linecap:round;" > 
<path d="M5450 3900 L5450 3900" /> 
</g><path d="M5150 3900 L5150 4000" /> 
<path d="M5150 4000 L5000 4000" /> 
<path d="M5000 4000 L5000 4000" /> 
<g style = "stroke-linecap:round;" > 
<path d="M5000 4000 L5000 4000" /> 
</g><path d="M5450 3800 L5350 3800" /> 
<path d="M5350 3800 L5350 3300" /> 
<path d="M5350 3300 L5850 3300" /> 
<path d="M5850 3300 L5850 3300" /> 
<g style = "stroke-linecap:round;" > 
<path d="M5850 3300 L5850 3300" /> 
</g><path d="M5450 3750 L5500 3700" /> 
<path d="M5500 3700 L5500 3600" /> 
<path d="M5500 3600 L5650 3600" /> 
<path d="M5650 3600 L5650 3600" /> 
<g style = "stroke-linecap:round;" > 
<path d="M5650 3600 L5650 3600" /> 
</g><path d="M5460 3880 L5480 3860" /> 
<path d="M5480 3860 L5480 3880" /> 
<path d="M5480 3880 L5460 3880" /> 
<path d="M5460 3880 L5460 3880" /> 
<path d="M5700 3950 L5750 4000" /> 
<path d="M5750 4000 L5750 4100" /> 
<path d="M5750 4100 L5850 4100" /> 
<path d="M5850 4100 L5850 4100" /> 
<g style = "stroke-linecap:round;" > 
<path d="M5850 4100 L5850 4100" /> 
</g><path d="M5710 3980 L5730 3960" /> 
<path d="M5730 3960 L5730 3980" /> 
<path d="M5730 3980 L5710 3980" /> 
<path d="M5710 3980 L5710 3980" /> 
<path d="M5250 3900 L5350 3900" /> 
<path d="M5350 3900 L5330 3880" /> 
<path d="M5330 3880 L5350 3900" /> 
<path d="M5350 3900 L5330 3920" /> 
<path d="M5330 3920 L5330 3920" /> 
<g style = "stroke-linecap:round;" > 
<path d="M5330 3920 L5330 3920" /> 
</g><path d="M5250 3840 L5350 3840" /> 
<path d="M5350 3840 L5330 3820" /> 
<path d="M5330 3820 L5350 3840" /> 
<path d="M5350 3840 L5330 3860" /> 
<path d="M5330 3860 L5330 3860" /> 
<g style = "stroke-linecap:round;" > 
<path d="M5330 3860 L5330 3860" /> 
</g><path d="M5450 3850 L5500 3900" /> 
<path d="M5500 3900 L5700 3900" /> 
<path d="M5700 3900 L5700 3800" /> 
<path d="M5700 3800 L5700 4000" /> 
<path d="M5700 4000 L5700 4000" /> 
<g style = "stroke-linecap:round;" > 
<path d="M5700 4000 L5700 4000" /> 
</g><path d="M5700 3850 L5750 3800" /> 
<path d="M5750 3800 L5750 3600" /> 
<path d="M5750 3600 L5650 3600" /> 
<path d="M5650 3600 L5750 3600" /> 
<path d="M5750 3600 L5750 3500" /> 
<path d="M5750 3500 L5850 3500" /> 
<path d="M5850 3500 L5850 3500" /> 
<g style = "stroke-linecap:round;" > 
<path d="M5850 3500 L5850 3500" /> 
</g><path d="M5050 3700 L5150 3700" /> 
<path d="M5150 3700 L5150 3800" /> 
<path d="M5150 3800 L5100 3800" /> 
<path d="M5100 3800 L5200 3800" /> 
<path d="M5200 3800 L5250 3800" /> 
<path d="M5250 3800 L5150 3900" /> 
<path d="M5150 3900 L5050 3800" /> 
<path d="M5050 3800 L5150 3800" /> 
<path d="M5150 3800 L5150 3800" /> 
<g style = "stroke-linecap:round;" > 
<path d="M5150 3800 L5150 3800" /> 
</g><path d="M5000 3700 L4700 3700" /> 
</g>
<g style="fill:#00A0A0; fill-opacity:0.0; 
  stroke:#00A0A0; stroke-linecap:round; stroke-linejoin:round; stroke-opacity:1.0; stroke-opacity:1.0; stroke-width:6" 
   transform="translate(0 0) scale(1 1)">
<path d="M5040 3706 L5063 3706" /> 
<g style = "stroke-linecap:round;" > 
<path d="M5063 3706 L5063 3706" /> 
</g><path d="M5035 3720 L5051 3670" /> 
<path d="M5051 3670 L5068 3720" /> 
<g style = "stroke-linecap:round;" > 
<path d="M5068 3720 L5068 3720" /> 
</g></g>
<g style="fill:#A00000; fill-opacity:0.0; 
  stroke:#A00000; stroke-linecap:round; stroke-linejoin:round; stroke-opacity:1.0; stroke-opacity:1.0; stroke-width:6" 
   transform="translate(0 0) scale(1 1)">
<path d="M4864 3685 L4836 3685" /> 
<g style = "stroke-linecap:round;" > 
<path d="M4836 3685 L4836 3685" /> 
</g><path d="M4850 3685 L4850 3635" /> 
<path d="M4850 3635 L4845 3642" /> 
<path d="M4845 3642 L4840 3647" /> 
<path d="M4840 3647 L4836 3650" /> 
<g style = "stroke-linecap:round;" > 
<path d="M4836 3650 L4836 3650" /> 
</g><path d="M5000 4000 L4700 4000" /> 
</g>
<g style="fill:#00A0A0; fill-opacity:0.0; 
  stroke:#00A0A0; stroke-linecap:round; stroke-linejoin:round; stroke-opacity:1.0; stroke-opacity:1.0; stroke-width:6" 
   transform="translate(0 0) scale(1 1)">
<path d="M5042 4020 L5042 3970" /> 
<g style = "stroke-linecap:round;" > 
<path d="M5042 3970 L5042 3970" /> 
</g><path d="M5070 4020 L5049 3992" /> 
<g style = "stroke-linecap:round;" > 
<path d="M5049 3992 L5049 3992" /> 
</g><path d="M5070 3970 L5042 3999" /> 
<g style = "stroke-linecap:round;" > 
<path d="M5042 3999 L5042 3999" /> 
</g></g>
<g style="fill:#A00000; fill-opacity:0.0; 
  stroke:#A00000; stroke-linecap:round; stroke-linejoin:round; stroke-opacity:1.0; stroke-opacity:1.0; stroke-width:6" 
   transform="translate(0 0) scale(1 1)">
<path d="M4836 3940 L4838 3938" /> 
<path d="M4838 3938 L4843 3935" /> 
<path d="M4843 3935 L4855 3935" /> 
<path d="M4855 3935 L4859 3938" /> 
<path d="M4859 3938 L4862 3940" /> 
<path d="M4862 3940 L4864 3945" /> 
<path d="M4864 3945 L4864 3950" /> 
<path d="M4864 3950 L4862 3957" /> 
<path d="M4862 3957 L4833 3985" /> 
<path d="M4833 3985 L4864 3985" /> 
<g style = "stroke-linecap:round;" > 
<path d="M4864 3985 L4864 3985" /> 
</g><path d="M5850 4100 L6150 4100" /> 
</g>
<g style="fill:#00A0A0; fill-opacity:0.0; 
  stroke:#00A0A0; stroke-linecap:round; stroke-linejoin:round; stroke-opacity:1.0; stroke-opacity:1.0; stroke-width:6" 
   transform="translate(0 0) scale(1 1)">
<path d="M5787 4094 L5804 4094" /> 
<g style = "stroke-linecap:round;" > 
<path d="M5804 4094 L5804 4094" /> 
</g><path d="M5811 4120 L5787 4120" /> 
<path d="M5787 4120 L5787 4070" /> 
<path d="M5787 4070 L5811 4070" /> 
<g style = "stroke-linecap:round;" > 
<path d="M5811 4070 L5811 4070" /> 
</g></g>
<g style="fill:#A00000; fill-opacity:0.0; 
  stroke:#A00000; stroke-linecap:round; stroke-linejoin:round; stroke-opacity:1.0; stroke-opacity:1.0; stroke-width:6" 
   transform="translate(0 0) scale(1 1)">
<path d="M6009 4052 L6009 4085" /> 
<g style = "stroke-linecap:round;" > 
<path d="M6009 4085 L6009 4085" /> 
</g><path d="M5997 4033 L5986 4069" /> 
<path d="M5986 4069 L6016 4069" /> 
<g style = "stroke-linecap:round;" > 
<path d="M6016 4069 L6016 4069" /> 
</g><path d="M5850 3500 L6150 3500" /> 
</g>
<g style="fill:#00A0A0; fill-opacity:0.0; 
  stroke:#00A0A0; stroke-linecap:round; stroke-linejoin:round; stroke-opacity:1.0; stroke-opacity:1.0; stroke-width:6" 
   transform="translate(0 0) scale(1 1)">
<path d="M5810 3515 L5808 3518" /> 
<path d="M5808 3518 L5801 3520" /> 
<path d="M5801 3520 L5796 3520" /> 
<path d="M5796 3520 L5789 3518" /> 
<path d="M5789 3518 L5784 3513" /> 
<path d="M5784 3513 L5782 3508" /> 
<path d="M5782 3508 L5780 3499" /> 
<path d="M5780 3499 L5780 3492" /> 
<path d="M5780 3492 L5782 3482" /> 
<path d="M5782 3482 L5784 3477" /> 
<path d="M5784 3477 L5789 3473" /> 
<path d="M5789 3473 L5796 3470" /> 
<path d="M5796 3470 L5801 3470" /> 
<path d="M5801 3470 L5808 3473" /> 
<path d="M5808 3473 L5810 3475" /> 
<g style = "stroke-linecap:round;" > 
<path d="M5810 3475 L5810 3475" /> 
</g></g>
<g style="fill:#A00000; fill-opacity:0.0; 
  stroke:#A00000; stroke-linecap:round; stroke-linejoin:round; stroke-opacity:1.0; stroke-opacity:1.0; stroke-width:6" 
   transform="translate(0 0) scale(1 1)">
<path d="M6012 3435 L5988 3435" /> 
<path d="M5988 3435 L5986 3459" /> 
<path d="M5986 3459 L5988 3457" /> 
<path d="M5988 3457 L5993 3454" /> 
<path d="M5993 3454 L6005 3454" /> 
<path d="M6005 3454 L6009 3457" /> 
<path d="M6009 3457 L6012 3459" /> 
<path d="M6012 3459 L6014 3464" /> 
<path d="M6014 3464 L6014 3476" /> 
<path d="M6014 3476 L6012 3480" /> 
<path d="M6012 3480 L6009 3483" /> 
<path d="M6009 3483 L6005 3485" /> 
<path d="M6005 3485 L5993 3485" /> 
<path d="M5993 3485 L5988 3483" /> 
<path d="M5988 3483 L5986 3480" /> 
<g style = "stroke-linecap:round;" > 
<path d="M5986 3480 L5986 3480" /> 
</g><path d="M5850 3300 L6150 3300" /> 
</g>
<g style="fill:#00A0A0; fill-opacity:0.0; 
  stroke:#00A0A0; stroke-linecap:round; stroke-linejoin:round; stroke-opacity:1.0; stroke-opacity:1.0; stroke-width:6" 
   transform="translate(0 0) scale(1 1)">
<path d="M5799 3294 L5806 3296" /> 
<path d="M5806 3296 L5808 3299" /> 
<path d="M5808 3299 L5810 3304" /> 
<path d="M5810 3304 L5810 3311" /> 
<path d="M5810 3311 L5808 3315" /> 
<path d="M5808 3315 L5806 3318" /> 
<path d="M5806 3318 L5801 3320" /> 
<path d="M5801 3320 L5782 3320" /> 
<path d="M5782 3320 L5782 3270" /> 
<path d="M5782 3270 L5799 3270" /> 
<path d="M5799 3270 L5803 3273" /> 
<path d="M5803 3273 L5806 3275" /> 
<path d="M5806 3275 L5808 3280" /> 
<path d="M5808 3280 L5808 3285" /> 
<path d="M5808 3285 L5806 3289" /> 
<path d="M5806 3289 L5803 3292" /> 
<path d="M5803 3292 L5799 3294" /> 
<path d="M5799 3294 L5782 3294" /> 
<g style = "stroke-linecap:round;" > 
<path d="M5782 3294 L5782 3294" /> 
</g></g>
<g style="fill:#A00000; fill-opacity:0.0; 
  stroke:#A00000; stroke-linecap:round; stroke-linejoin:round; stroke-opacity:1.0; stroke-opacity:1.0; stroke-width:6" 
   transform="translate(0 0) scale(1 1)">
<path d="M6009 3235 L6000 3235" /> 
<path d="M6000 3235 L5995 3238" /> 
<path d="M5995 3238 L5993 3240" /> 
<path d="M5993 3240 L5988 3247" /> 
<path d="M5988 3247 L5986 3257" /> 
<path d="M5986 3257 L5986 3276" /> 
<path d="M5986 3276 L5988 3280" /> 
<path d="M5988 3280 L5990 3283" /> 
<path d="M5990 3283 L5995 3285" /> 
<path d="M5995 3285 L6005 3285" /> 
<path d="M6005 3285 L6009 3283" /> 
<path d="M6009 3283 L6012 3280" /> 
<path d="M6012 3280 L6014 3276" /> 
<path d="M6014 3276 L6014 3264" /> 
<path d="M6014 3264 L6012 3259" /> 
<path d="M6012 3259 L6009 3257" /> 
<path d="M6009 3257 L6005 3254" /> 
<path d="M6005 3254 L5995 3254" /> 
<path d="M5995 3254 L5990 3257" /> 
<path d="M5990 3257 L5988 3259" /> 
<path d="M5988 3259 L5986 3264" /> 
<g style = "stroke-linecap:round;" > 
<path d="M5986 3264 L5986 3264" /> 
</g></g>
<g style="fill:#00A0A0; fill-opacity:0.0; 
  stroke:#00A0A0; stroke-linecap:round; stroke-linejoin:round; stroke-opacity:1.0; stroke-opacity:1.0; stroke-width:6" 
   transform="translate(0 0) scale(1 1)">
<path d="M5608 3114 L5619 3114" /> 
<path d="M5619 3114 L5625 3117" /> 
<path d="M5625 3117 L5631 3123" /> 
<path d="M5631 3123 L5633 3134" /> 
<path d="M5633 3134 L5633 3154" /> 
<path d="M5633 3154 L5631 3166" /> 
<path d="M5631 3166 L5625 3171" /> 
<path d="M5625 3171 L5619 3174" /> 
<path d="M5619 3174 L5608 3174" /> 
<path d="M5608 3174 L5602 3171" /> 
<path d="M5602 3171 L5596 3166" /> 
<path d="M5596 3166 L5593 3154" /> 
<path d="M5593 3154 L5593 3134" /> 
<path d="M5593 3134 L5596 3123" /> 
<path d="M5596 3123 L5602 3117" /> 
<path d="M5602 3117 L5608 3114" /> 
<path d="M5659 3134 L5659 3194" /> 
<g style = "stroke-linecap:round;" > 
<path d="M5659 3194 L5659 3194" /> 
</g><path d="M5659 3137 L5665 3134" /> 
<path d="M5665 3134 L5676 3134" /> 
<path d="M5676 3134 L5682 3137" /> 
<path d="M5682 3137 L5685 3140" /> 
<path d="M5685 3140 L5688 3146" /> 
<path d="M5688 3146 L5688 3163" /> 
<path d="M5688 3163 L5685 3169" /> 
<path d="M5685 3169 L5682 3171" /> 
<path d="M5682 3171 L5676 3174" /> 
<path d="M5676 3174 L5665 3174" /> 
<path d="M5665 3174 L5659 3171" /> 
<g style = "stroke-linecap:round;" > 
<path d="M5659 3171 L5659 3171" /> 
</g><path d="M5705 3134 L5728 3134" /> 
<g style = "stroke-linecap:round;" > 
<path d="M5728 3134 L5728 3134" /> 
</g><path d="M5713 3114 L5713 3166" /> 
<path d="M5713 3166 L5716 3171" /> 
<path d="M5716 3171 L5722 3174" /> 
<path d="M5722 3174 L5728 3174" /> 
<g style = "stroke-linecap:round;" > 
<path d="M5728 3174 L5728 3174" /> 
</g><path d="M5756 3174 L5750 3171" /> 
<path d="M5750 3171 L5747 3169" /> 
<path d="M5747 3169 L5744 3163" /> 
<path d="M5744 3163 L5744 3146" /> 
<path d="M5744 3146 L5747 3140" /> 
<path d="M5747 3140 L5750 3137" /> 
<path d="M5750 3137 L5756 3134" /> 
<path d="M5756 3134 L5764 3134" /> 
<path d="M5764 3134 L5770 3137" /> 
<path d="M5770 3137 L5773 3140" /> 
<path d="M5773 3140 L5776 3146" /> 
<path d="M5776 3146 L5776 3163" /> 
<path d="M5776 3163 L5773 3169" /> 
<path d="M5773 3169 L5770 3171" /> 
<path d="M5770 3171 L5764 3174" /> 
<path d="M5764 3174 L5756 3174" /> 
<path d="M5827 3171 L5821 3174" /> 
<path d="M5821 3174 L5810 3174" /> 
<path d="M5810 3174 L5804 3171" /> 
<path d="M5804 3171 L5801 3169" /> 
<path d="M5801 3169 L5798 3163" /> 
<path d="M5798 3163 L5798 3146" /> 
<path d="M5798 3146 L5801 3140" /> 
<path d="M5801 3140 L5804 3137" /> 
<path d="M5804 3137 L5810 3134" /> 
<path d="M5810 3134 L5821 3134" /> 
<path d="M5821 3134 L5827 3137" /> 
<g style = "stroke-linecap:round;" > 
<path d="M5827 3137 L5827 3137" /> 
</g><path d="M5861 3174 L5855 3171" /> 
<path d="M5855 3171 L5852 3169" /> 
<path d="M5852 3169 L5849 3163" /> 
<path d="M5849 3163 L5849 3146" /> 
<path d="M5849 3146 L5852 3140" /> 
<path d="M5852 3140 L5855 3137" /> 
<path d="M5855 3137 L5861 3134" /> 
<path d="M5861 3134 L5869 3134" /> 
<path d="M5869 3134 L5875 3137" /> 
<path d="M5875 3137 L5878 3140" /> 
<path d="M5878 3140 L5881 3146" /> 
<path d="M5881 3146 L5881 3163" /> 
<path d="M5881 3163 L5878 3169" /> 
<path d="M5878 3169 L5875 3171" /> 
<path d="M5875 3171 L5869 3174" /> 
<path d="M5869 3174 L5861 3174" /> 
<path d="M5932 3134 L5932 3174" /> 
<g style = "stroke-linecap:round;" > 
<path d="M5932 3174 L5932 3174" /> 
</g><path d="M5906 3134 L5906 3166" /> 
<path d="M5906 3166 L5909 3171" /> 
<path d="M5909 3171 L5915 3174" /> 
<path d="M5915 3174 L5923 3174" /> 
<path d="M5923 3174 L5929 3171" /> 
<path d="M5929 3171 L5932 3169" /> 
<g style = "stroke-linecap:round;" > 
<path d="M5932 3169 L5932 3169" /> 
</g><path d="M5960 3134 L5960 3194" /> 
<g style = "stroke-linecap:round;" > 
<path d="M5960 3194 L5960 3194" /> 
</g><path d="M5960 3137 L5966 3134" /> 
<path d="M5966 3134 L5977 3134" /> 
<path d="M5977 3134 L5983 3137" /> 
<path d="M5983 3137 L5986 3140" /> 
<path d="M5986 3140 L5989 3146" /> 
<path d="M5989 3146 L5989 3163" /> 
<path d="M5989 3163 L5986 3169" /> 
<path d="M5986 3169 L5983 3171" /> 
<path d="M5983 3171 L5977 3174" /> 
<path d="M5977 3174 L5966 3174" /> 
<path d="M5966 3174 L5960 3171" /> 
<g style = "stroke-linecap:round;" > 
<path d="M5960 3171 L5960 3171" /> 
</g><path d="M6023 3174 L6017 3171" /> 
<path d="M6017 3171 L6014 3166" /> 
<path d="M6014 3166 L6014 3114" /> 
<g style = "stroke-linecap:round;" > 
<path d="M6014 3114 L6014 3114" /> 
</g><path d="M6068 3171 L6062 3174" /> 
<path d="M6062 3174 L6051 3174" /> 
<path d="M6051 3174 L6045 3171" /> 
<path d="M6045 3171 L6042 3166" /> 
<path d="M6042 3166 L6042 3143" /> 
<path d="M6042 3143 L6045 3137" /> 
<path d="M6045 3137 L6051 3134" /> 
<path d="M6051 3134 L6062 3134" /> 
<path d="M6062 3134 L6068 3137" /> 
<path d="M6068 3137 L6071 3143" /> 
<path d="M6071 3143 L6071 3149" /> 
<path d="M6071 3149 L6042 3154" /> 
<g style = "stroke-linecap:round;" > 
<path d="M6042 3154 L6042 3154" /> 
</g><path d="M6096 3174 L6096 3134" /> 
<g style = "stroke-linecap:round;" > 
<path d="M6096 3134 L6096 3134" /> 
</g><path d="M6096 3146 L6099 3140" /> 
<path d="M6099 3140 L6102 3137" /> 
<path d="M6102 3137 L6108 3134" /> 
<path d="M6108 3134 L6113 3134" /> 
<g style = "stroke-linecap:round;" > 
<path d="M6113 3134 L6113 3134" /> 
</g><path d="M5373 4384 L5373 4424" /> 
<g style = "stroke-linecap:round;" > 
<path d="M5373 4424 L5373 4424" /> 
</g><path d="M5359 4361 L5344 4404" /> 
<path d="M5344 4404 L5382 4404" /> 
<g style = "stroke-linecap:round;" > 
<path d="M5382 4404 L5382 4404" /> 
</g><path d="M5404 4424 L5404 4364" /> 
<path d="M5404 4364 L5439 4424" /> 
<path d="M5439 4424 L5439 4364" /> 
<g style = "stroke-linecap:round;" > 
<path d="M5439 4364 L5439 4364" /> 
</g><path d="M5464 4370 L5467 4367" /> 
<path d="M5467 4367 L5473 4364" /> 
<path d="M5473 4364 L5487 4364" /> 
<path d="M5487 4364 L5493 4367" /> 
<path d="M5493 4367 L5496 4370" /> 
<path d="M5496 4370 L5499 4376" /> 
<path d="M5499 4376 L5499 4381" /> 
<path d="M5499 4381 L5496 4390" /> 
<path d="M5496 4390 L5462 4424" /> 
<path d="M5462 4424 L5499 4424" /> 
<g style = "stroke-linecap:round;" > 
<path d="M5499 4424 L5499 4424" /> 
</g><path d="M5550 4364 L5539 4364" /> 
<path d="M5539 4364 L5533 4367" /> 
<path d="M5533 4367 L5530 4370" /> 
<path d="M5530 4370 L5524 4379" /> 
<path d="M5524 4379 L5521 4390" /> 
<path d="M5521 4390 L5521 4413" /> 
<path d="M5521 4413 L5524 4419" /> 
<path d="M5524 4419 L5527 4421" /> 
<path d="M5527 4421 L5533 4424" /> 
<path d="M5533 4424 L5544 4424" /> 
<path d="M5544 4424 L5550 4421" /> 
<path d="M5550 4421 L5553 4419" /> 
<path d="M5553 4419 L5556 4413" /> 
<path d="M5556 4413 L5556 4399" /> 
<path d="M5556 4399 L5553 4393" /> 
<path d="M5553 4393 L5550 4390" /> 
<path d="M5550 4390 L5544 4387" /> 
<path d="M5544 4387 L5533 4387" /> 
<path d="M5533 4387 L5527 4390" /> 
<path d="M5527 4390 L5524 4393" /> 
<path d="M5524 4393 L5521 4399" /> 
<g style = "stroke-linecap:round;" > 
<path d="M5521 4399 L5521 4399" /> 
</g></g>
<g style="fill:#A00000; fill-opacity:0.0; 
  stroke:#A00000; stroke-linecap:round; stroke-linejoin:round; stroke-opacity:1.0; stroke-opacity:1.0; stroke-width:6" 
   transform="translate(0 0) scale(1 1)">
<path d="M6700 3600 L6600 3600" /> 
<g style = "stroke-linecap:round;" > 
<path d="M6600 3600 L6600 3600" /> 
</g></g>
<g style="fill:#A00000; fill-opacity:1.0; 
  stroke:#A00000; stroke-linecap:round; stroke-linejoin:round; stroke-opacity:1.0; stroke-opacity:1.0; stroke-width:6" 
   transform="translate(0 0) scale(1 1)">
<polygon style="fill-rule:evenodd; " 
points="6650,3600
6600,3500
6700,3500
" /> 
</g>
<g style="fill:#A00000; fill-opacity:0.0; 
  stroke:#A00000; stroke-linecap:round; stroke-linejoin:round; stroke-opacity:1.0; stroke-opacity:1.0; stroke-width:6" 
   transform="translate(0 0) scale(1 1)">
<path d="M6610 3615 L6570 3660" /> 
<path d="M6570 3660 L6595 3655" /> 
<g style = "stroke-linecap:round;" > 
<path d="M6595 3655 L6595 3655" /> 
</g><path d="M6625 3630 L6585 3675" /> 
<path d="M6585 3675 L6610 3670" /> 
<g style = "stroke-linecap:round;" > 
<path d="M6610 3670 L6610 3670" /> 
</g><path d="M6650 3500 L6650 3350" /> 
<path d="M6636 3414 L6636 3436" /> 
<g style = "stroke-linecap:round;" > 
<path d="M6636 3436 L6636 3436" /> 
</g><path d="M6636 3425 L6596 3425" /> 
<path d="M6596 3425 L6602 3429" /> 
<path d="M6602 3429 L6606 3433" /> 
<path d="M6606 3433 L6608 3436" /> 
<g style = "stroke-linecap:round;" > 
<path d="M6608 3436 L6608 3436" /> 
</g><path d="M6650 3600 L6650 3750" /> 
<path d="M6600 3686 L6598 3684" /> 
<path d="M6598 3684 L6596 3681" /> 
<path d="M6596 3681 L6596 3671" /> 
<path d="M6596 3671 L6598 3667" /> 
<path d="M6598 3667 L6600 3665" /> 
<path d="M6600 3665 L6604 3664" /> 
<path d="M6604 3664 L6608 3664" /> 
<path d="M6608 3664 L6613 3665" /> 
<path d="M6613 3665 L6636 3688" /> 
<path d="M6636 3688 L6636 3664" /> 
<g style = "stroke-linecap:round;" > 
<path d="M6636 3664 L6636 3664" /> 
</g></g>
<g style="fill:#00A0A0; fill-opacity:0.0; 
  stroke:#00A0A0; stroke-linecap:round; stroke-linejoin:round; stroke-opacity:1.0; stroke-opacity:1.0; stroke-width:6" 
   transform="translate(0 0) scale(1 1)">
<path d="M6770 3811 L6770 3835" /> 
<path d="M6770 3835 L6720 3835" /> 
<g style = "stroke-linecap:round;" > 
<path d="M6720 3835 L6720 3835" /> 
</g><path d="M6744 3795 L6744 3778" /> 
<g style = "stroke-linecap:round;" > 
<path d="M6744 3778 L6744 3778" /> 
</g><path d="M6770 3771 L6770 3795" /> 
<path d="M6770 3795 L6720 3795" /> 
<path d="M6720 3795 L6720 3771" /> 
<g style = "stroke-linecap:round;" > 
<path d="M6720 3771 L6720 3771" /> 
</g><path d="M6770 3750 L6720 3750" /> 
<path d="M6720 3750 L6720 3738" /> 
<path d="M6720 3738 L6723 3731" /> 
<path d="M6723 3731 L6727 3726" /> 
<path d="M6727 3726 L6732 3724" /> 
<path d="M6732 3724 L6742 3722" /> 
<path d="M6742 3722 L6749 3722" /> 
<path d="M6749 3722 L6758 3724" /> 
<path d="M6758 3724 L6763 3726" /> 
<path d="M6763 3726 L6768 3731" /> 
<path d="M6768 3731 L6770 3738" /> 
<path d="M6770 3738 L6770 3750" /> 
<path d="M6720 3705 L6720 3672" /> 
<path d="M6720 3672 L6770 3693" /> 
<g style = "stroke-linecap:round;" > 
<path d="M6770 3693 L6770 3693" /> 
</g><path d="M6742 3645 L6739 3650" /> 
<path d="M6739 3650 L6737 3652" /> 
<path d="M6737 3652 L6732 3654" /> 
<path d="M6732 3654 L6730 3654" /> 
<path d="M6730 3654 L6725 3652" /> 
<path d="M6725 3652 L6723 3650" /> 
<path d="M6723 3650 L6720 3645" /> 
<path d="M6720 3645 L6720 3635" /> 
<path d="M6720 3635 L6723 3631" /> 
<path d="M6723 3631 L6725 3628" /> 
<path d="M6725 3628 L6730 3626" /> 
<path d="M6730 3626 L6732 3626" /> 
<path d="M6732 3626 L6737 3628" /> 
<path d="M6737 3628 L6739 3631" /> 
<path d="M6739 3631 L6742 3635" /> 
<path d="M6742 3635 L6742 3645" /> 
<path d="M6742 3645 L6744 3650" /> 
<path d="M6744 3650 L6746 3652" /> 
<path d="M6746 3652 L6751 3654" /> 
<path d="M6751 3654 L6761 3654" /> 
<path d="M6761 3654 L6765 3652" /> 
<path d="M6765 3652 L6768 3650" /> 
<path d="M6768 3650 L6770 3645" /> 
<path d="M6770 3645 L6770 3635" /> 
<path d="M6770 3635 L6768 3631" /> 
<path d="M6768 3631 L6765 3628" /> 
<path d="M6765 3628 L6761 3626" /> 
<path d="M6761 3626 L6751 3626" /> 
<path d="M6751 3626 L6746 3628" /> 
<path d="M6746 3628 L6744 3631" /> 
<path d="M6744 3631 L6742 3635" /> 
<g style = "stroke-linecap:round;" > 
<path d="M6742 3635 L6742 3635" /> 
</g><path d="M6720 3595 L6720 3590" /> 
<path d="M6720 3590 L6723 3585" /> 
<path d="M6723 3585 L6725 3583" /> 
<path d="M6725 3583 L6730 3580" /> 
<path d="M6730 3580 L6739 3578" /> 
<path d="M6739 3578 L6751 3578" /> 
<path d="M6751 3578 L6761 3580" /> 
<path d="M6761 3580 L6765 3583" /> 
<path d="M6765 3583 L6768 3585" /> 
<path d="M6768 3585 L6770 3590" /> 
<path d="M6770 3590 L6770 3595" /> 
<path d="M6770 3595 L6768 3599" /> 
<path d="M6768 3599 L6765 3602" /> 
<path d="M6765 3602 L6761 3604" /> 
<path d="M6761 3604 L6751 3606" /> 
<path d="M6751 3606 L6739 3606" /> 
<path d="M6739 3606 L6730 3604" /> 
<path d="M6730 3604 L6725 3602" /> 
<path d="M6725 3602 L6723 3599" /> 
<path d="M6723 3599 L6720 3595" /> 
<path d="M6751 3556 L6751 3518" /> 
<g style = "stroke-linecap:round;" > 
<path d="M6751 3518 L6751 3518" /> 
</g><path d="M6720 3473 L6720 3482" /> 
<path d="M6720 3482 L6723 3487" /> 
<path d="M6723 3487 L6725 3489" /> 
<path d="M6725 3489 L6732 3494" /> 
<path d="M6732 3494 L6742 3496" /> 
<path d="M6742 3496 L6761 3496" /> 
<path d="M6761 3496 L6765 3494" /> 
<path d="M6765 3494 L6768 3492" /> 
<path d="M6768 3492 L6770 3487" /> 
<path d="M6770 3487 L6770 3477" /> 
<path d="M6770 3477 L6768 3473" /> 
<path d="M6768 3473 L6765 3470" /> 
<path d="M6765 3470 L6761 3468" /> 
<path d="M6761 3468 L6749 3468" /> 
<path d="M6749 3468 L6744 3470" /> 
<path d="M6744 3470 L6742 3473" /> 
<path d="M6742 3473 L6739 3477" /> 
<path d="M6739 3477 L6739 3487" /> 
<path d="M6739 3487 L6742 3492" /> 
<path d="M6742 3492 L6744 3494" /> 
<path d="M6744 3494 L6749 3496" /> 
<g style = "stroke-linecap:round;" > 
<path d="M6749 3496 L6749 3496" /> 
</g><path d="M6720 3425 L6720 3434" /> 
<path d="M6720 3434 L6723 3439" /> 
<path d="M6723 3439 L6725 3441" /> 
<path d="M6725 3441 L6732 3446" /> 
<path d="M6732 3446 L6742 3448" /> 
<path d="M6742 3448 L6761 3448" /> 
<path d="M6761 3448 L6765 3446" /> 
<path d="M6765 3446 L6768 3444" /> 
<path d="M6768 3444 L6770 3439" /> 
<path d="M6770 3439 L6770 3429" /> 
<path d="M6770 3429 L6768 3425" /> 
<path d="M6768 3425 L6765 3422" /> 
<path d="M6765 3422 L6761 3420" /> 
<path d="M6761 3420 L6749 3420" /> 
<path d="M6749 3420 L6744 3422" /> 
<path d="M6744 3422 L6742 3425" /> 
<path d="M6742 3425 L6739 3429" /> 
<path d="M6739 3429 L6739 3439" /> 
<path d="M6739 3439 L6742 3444" /> 
<path d="M6742 3444 L6744 3446" /> 
<path d="M6744 3446 L6749 3448" /> 
<g style = "stroke-linecap:round;" > 
<path d="M6749 3448 L6749 3448" /> 
</g><path d="M6751 3398 L6751 3360" /> 
<g style = "stroke-linecap:round;" > 
<path d="M6751 3360 L6751 3360" /> 
</g><path d="M6720 3315 L6720 3324" /> 
<path d="M6720 3324 L6723 3329" /> 
<path d="M6723 3329 L6725 3331" /> 
<path d="M6725 3331 L6732 3336" /> 
<path d="M6732 3336 L6742 3338" /> 
<path d="M6742 3338 L6761 3338" /> 
<path d="M6761 3338 L6765 3336" /> 
<path d="M6765 3336 L6768 3334" /> 
<path d="M6768 3334 L6770 3329" /> 
<path d="M6770 3329 L6770 3319" /> 
<path d="M6770 3319 L6768 3315" /> 
<path d="M6768 3315 L6765 3312" /> 
<path d="M6765 3312 L6761 3310" /> 
<path d="M6761 3310 L6749 3310" /> 
<path d="M6749 3310 L6744 3312" /> 
<path d="M6744 3312 L6742 3315" /> 
<path d="M6742 3315 L6739 3319" /> 
<path d="M6739 3319 L6739 3329" /> 
<path d="M6739 3329 L6742 3334" /> 
<path d="M6742 3334 L6744 3336" /> 
<path d="M6744 3336 L6749 3338" /> 
<g style = "stroke-linecap:round;" > 
<path d="M6749 3338 L6749 3338" /> 
</g><path d="M6720 3279 L6720 3274" /> 
<path d="M6720 3274 L6723 3269" /> 
<path d="M6723 3269 L6725 3267" /> 
<path d="M6725 3267 L6730 3264" /> 
<path d="M6730 3264 L6739 3262" /> 
<path d="M6739 3262 L6751 3262" /> 
<path d="M6751 3262 L6761 3264" /> 
<path d="M6761 3264 L6765 3267" /> 
<path d="M6765 3267 L6768 3269" /> 
<path d="M6768 3269 L6770 3274" /> 
<path d="M6770 3274 L6770 3279" /> 
<path d="M6770 3279 L6768 3283" /> 
<path d="M6768 3283 L6765 3286" /> 
<path d="M6765 3286 L6761 3288" /> 
<path d="M6761 3288 L6751 3290" /> 
<path d="M6751 3290 L6739 3290" /> 
<path d="M6739 3290 L6730 3288" /> 
<path d="M6730 3288 L6725 3286" /> 
<path d="M6725 3286 L6723 3283" /> 
<path d="M6723 3283 L6720 3279" /> 
<path d="M6570 3581 L6570 3605" /> 
<path d="M6570 3605 L6520 3605" /> 
<g style = "stroke-linecap:round;" > 
<path d="M6520 3605 L6520 3605" /> 
</g><path d="M6544 3565 L6544 3548" /> 
<g style = "stroke-linecap:round;" > 
<path d="M6544 3548 L6544 3548" /> 
</g><path d="M6570 3541 L6570 3565" /> 
<path d="M6570 3565 L6520 3565" /> 
<path d="M6520 3565 L6520 3541" /> 
<g style = "stroke-linecap:round;" > 
<path d="M6520 3541 L6520 3541" /> 
</g><path d="M6570 3520 L6520 3520" /> 
<path d="M6520 3520 L6520 3508" /> 
<path d="M6520 3508 L6523 3501" /> 
<path d="M6523 3501 L6527 3496" /> 
<path d="M6527 3496 L6532 3494" /> 
<path d="M6532 3494 L6542 3492" /> 
<path d="M6542 3492 L6549 3492" /> 
<path d="M6549 3492 L6558 3494" /> 
<path d="M6558 3494 L6563 3496" /> 
<path d="M6563 3496 L6568 3501" /> 
<path d="M6568 3501 L6570 3508" /> 
<path d="M6570 3508 L6570 3520" /> 
</g>
<g style="fill:#A00000; fill-opacity:0.0; 
  stroke:#A00000; stroke-linecap:round; stroke-linejoin:round; stroke-opacity:1.0; stroke-opacity:1.0; stroke-width:6" 
   transform="translate(0 0) scale(1 1)">
<ellipse cx="6650" cy="2700" rx="20" ry="20"  /> 
<path d="M6650 2750 L6650 2720" /> 
<path d="M6650 2720 L6650 2720" /> 
<g style = "stroke-linecap:round;" > 
<path d="M6650 2720 L6650 2720" /> 
</g></g>
<g style="fill:#00A0A0; fill-opacity:0.0; 
  stroke:#00A0A0; stroke-linecap:round; stroke-linejoin:round; stroke-opacity:1.0; stroke-opacity:1.0; stroke-width:5" 
   transform="translate(0 0) scale(1 1)">
<path d="M6610 2632 L6620 2662" /> 
<path d="M6620 2662 L6630 2632" /> 
<g style = "stroke-linecap:round;" > 
<path d="M6630 2632 L6630 2632" /> 
</g><path d="M6657 2659 L6656 2661" /> 
<path d="M6656 2661 L6652 2662" /> 
<path d="M6652 2662 L6649 2662" /> 
<path d="M6649 2662 L6644 2661" /> 
<path d="M6644 2661 L6642 2658" /> 
<path d="M6642 2658 L6640 2655" /> 
<path d="M6640 2655 L6639 2649" /> 
<path d="M6639 2649 L6639 2645" /> 
<path d="M6639 2645 L6640 2639" /> 
<path d="M6640 2639 L6642 2636" /> 
<path d="M6642 2636 L6644 2634" /> 
<path d="M6644 2634 L6649 2632" /> 
<path d="M6649 2632 L6652 2632" /> 
<path d="M6652 2632 L6656 2634" /> 
<path d="M6656 2634 L6657 2635" /> 
<g style = "stroke-linecap:round;" > 
<path d="M6657 2635 L6657 2635" /> 
</g><path d="M6687 2659 L6686 2661" /> 
<path d="M6686 2661 L6682 2662" /> 
<path d="M6682 2662 L6679 2662" /> 
<path d="M6679 2662 L6674 2661" /> 
<path d="M6674 2661 L6672 2658" /> 
<path d="M6672 2658 L6670 2655" /> 
<path d="M6670 2655 L6669 2649" /> 
<path d="M6669 2649 L6669 2645" /> 
<path d="M6669 2645 L6670 2639" /> 
<path d="M6670 2639 L6672 2636" /> 
<path d="M6672 2636 L6674 2634" /> 
<path d="M6674 2634 L6679 2632" /> 
<path d="M6679 2632 L6682 2632" /> 
<path d="M6682 2632 L6686 2634" /> 
<path d="M6686 2634 L6687 2635" /> 
<g style = "stroke-linecap:round;" > 
<path d="M6687 2635 L6687 2635" /> 
</g></g> 
</svg> 
